# xmcd
#
# Track frame offsets:
#	150
#	13330
#	26032
#	39060
#	48347
#	58885
#	70207
#	83185
#	95297
#	105010
#	119917
#	133867
#	148547
#	158482
#	174705
#
# Disc length: 2509 seconds
#
# Revision: 1
# Processed by: cddbd v1.5.1PL2 Copyright (c) Steve Scherf et al.
# Submitted via: audiograbber 1.83.01
#
DISCID=c809cb0f
DTITLE=Ralph Emery Presents Country Roads - He Stopped Loving Her Today
DYEAR=2006
DGENRE=Classic Country
TTITLE0=Hank Williams and his Dirty Cowboys - Hey Good lookin
TTITLE1=Hank Snow and His Rainbow Ranch Boys - I'm Movin' on
TTITLE2=Kitty Wells - Making Believe
TTITLE3=Elvis Presley - Don't Be Cruel
TTITLE4=The Everly Brothers - All I Have To Do Is Dream
TTITLE5=Marty Robbins - A white Sport Coat (& a Pink Carnation)
TTITLE6=Eddy Arnold - Anytime
TTITLE7=Tammy Wynette - Stand By Your Man
TTITLE8=Webb Pierce - I Ain't Never
TTITLE9=George Jones - He Stopped Loving Her Today
TTITLE10=Lefty Frizzell -  Always Late (with your kisses
TTITLE11=Jeannie C. Riely - Harper Valley PTA
TTITLE12=Merle Haggard - Mama Tried
TTITLE13=Kenny Rogers - Lucille
TTITLE14=B.Bj> Thomas - Raindrops Keep Fallin' on My Head
EXTD=
EXTT0=
EXTT1=
EXTT2=
EXTT3=
EXTT4=
EXTT5=
EXTT6=
EXTT7=
EXTT8=
EXTT9=
EXTT10=
EXTT11=
EXTT12=
EXTT13=
EXTT14=
PLAYORDER=
